<svg  xmlns="http://www.w3.org/2000/svg">
    <g clip-path="url(#clip0)">
        <path d="M14.64 9.46a2.12 2.12 0 0 0-1.08-1.62c-.29-.17-.6-.28-.92-.42l.08-.06c1.57-.8 1.43-3.21.29-4.04a4.11 4.11 0 0 0-1.51-.67c-.39-.09-.78-.15-1.18-.21L10.34 0H8.89c-.02.76-.02 1.7-.03 2.39H7.69V0H6.25c-.02.78-.02 1.74-.03 2.42-1 0-1.96 0-2.96-.02l-.01 1.56c.2 0 .4 0 .57.02h.55c.51.05.78.33.78.83l-.07 6.28c0 .46-.2.63-.65.63h-.97l-.3 1.74 2.96.04-.01 2.49h1.46c.01-.79.01-1.71.03-2.45l1.17.04L8.75 16h1.46c.01-.79.01-1.71.03-2.44l.12-.02c.7-.11 1.41-.18 2.09-.34a2.75 2.75 0 0 0 1.96-1.61c.28-.68.34-1.39.23-2.13zM7.7 4.11c.91 0 1.8-.07 2.62.3.55.24.83.69.79 1.23-.04.57-.36.99-.95 1.17-.8.27-1.64.25-2.5.22.03-.96.03-1.9.04-2.92zm3.19 7.3c-.82.37-1.67.37-2.53.38l-.74-.01.04-3.24c1.11 0 2.21-.09 3.25.37.54.24.85.65.85 1.27 0 .6-.34 1-.87 1.23z"
              fill="#fff"/>
    </g>
    <defs>
        <clipPath id="clip0">
            <path fill="#fff" transform="translate(1)" d="M0 0h16v16H0z"/>
        </clipPath>
    </defs>
</svg>
