<svg viewBox="0 0 21 20"  xmlns="http://www.w3.org/2000/svg">
<path d="M6.78711 19V18H6.78711L6.78711 19ZM12.4121 19L12.4121 18H12.4121V19ZM1.16211 19H0.162109C0.162109 19.2652 0.267466 19.5196 0.455003 19.7071C0.642539 19.8946 0.896893 20 1.16211 20L1.16211 19ZM1.16211 13.375V12.375C0.609825 12.375 0.162109 12.8227 0.162109 13.375H1.16211ZM6.78711 13.375V14.375C7.33939 14.375 7.78711 13.9273 7.78711 13.375H6.78711ZM6.78711 1V0C6.23482 0 5.78711 0.447715 5.78711 1L6.78711 1ZM12.4121 1H13.4121C13.4121 0.447715 12.9644 0 12.4121 0V1ZM12.4121 6.05745H11.4121C11.4121 6.60973 11.8598 7.05745 12.4121 7.05745V6.05745ZM18.0371 6.05745H19.0371C19.0371 5.50516 18.5894 5.05745 18.0371 5.05745V6.05745ZM18.0371 19L18.0371 20C18.3023 20 18.5567 19.8947 18.7442 19.7071C18.9318 19.5196 19.0371 19.2652 19.0371 19H18.0371ZM6.78711 20H12.4121V18H6.78711V20ZM6.78711 18L1.16211 18L1.16211 20L6.78711 20L6.78711 18ZM2.16211 19V13.375H0.162109V19H2.16211ZM1.16211 14.375H6.78711V12.375H1.16211V14.375ZM5.78711 1V13.375H7.78711V1H5.78711ZM12.4121 0H6.78711V2H12.4121V0ZM13.4121 6.05745V1H11.4121V6.05745H13.4121ZM12.4121 7.05745H18.0371V5.05745H12.4121V7.05745ZM17.0371 6.05745V19H19.0371V6.05745H17.0371ZM18.0371 18L12.4121 18L12.4121 20L18.0371 20L18.0371 18Z"/>
</svg>
