<svg viewBox="0 0 26 25" xmlns="http://www.w3.org/2000/svg">
    <path d="M3.43 7.399a1 1 0 1 0 0 2v-2zm19.318 2a1 1 0 1 0 0-2v2zM13 23.5l-.796.606a1 1 0 0 0 1.591 0L13 23.5zM25 7.745l.796.606a1 1 0 0 0 .031-1.168L25 7.745zM20.416 1l.827-.562A1 1 0 0 0 20.416 0v1zM5.584 1V0a1 1 0 0 0-.827.438L5.584 1zM1 7.745l-.827-.562A1 1 0 0 0 .204 8.35L1 7.745zm2.43 1.654h19.318v-2H3.429v2zm10.366 14.707l12-15.755-1.591-1.212-12 15.755 1.59 1.212zM25.827 7.183L21.243.438 19.59 1.562l4.584 6.745 1.654-1.124zM20.416 0H5.584v2h14.832V0zM4.756.438L.174 7.183l1.654 1.124 4.584-6.745L4.757.438zM.205 8.35l12 15.755 1.591-1.212-12-15.755L.206 8.35z"/>
</svg>

