<svg  fill="none" xmlns="http://www.w3.org/2000/svg">
    <path d="M3.5 17h-1a1 1 0 0 0 1 1v-1zm11 0v1a1 1 0 0 0 1-1h-1zm0-12.68h1a1 1 0 0 0-1-1v1zm-11 0v-1a1 1 0 0 0-1 1h1zm13.5 1a1 1 0 1 0 0-2v2zm-16-2a1 1 0 1 0 0 2v-2zm5.38 1h-1a1 1 0 0 0 1 1v-1zm5.24 0v1a1 1 0 0 0 1-1h-1zm0-3.32h1a1 1 0 0 0-1-1v1zM6.38 1V0a1 1 0 0 0-1 1h1zm1.75 7a1 1 0 1 0-2 0h2zm-2 5.32a1 1 0 1 0 2 0h-2zM11.88 8a1 1 0 0 0-2 0h2zm-2 5.32a1 1 0 0 0 2 0h-2zM3.5 18h11v-2h-11v2zm12-1V4.32h-2V17h2zm-1-13.68h-11v2h11v-2zm-12 1V17h2V4.32h-2zm14.5-1H1v2h16v-2zm-10.62 2h5.24v-2H6.38v2zm6.24-1V1h-2v3.32h2zm-1-4.32H6.38v2h5.24V0zM5.38 1v3.32h2V1h-2zm.75 7v5.32h2V8h-2zm3.75 0v5.32h2V8h-2z"
          fill="#DF4646"/>
</svg>
