<svg  fill="none" xmlns="http://www.w3.org/2000/svg">
    <path opacity=".2" fill-rule="evenodd" clip-rule="evenodd"
          d="M10.38 13.43h59.2c.24 0 .43.2.43.44v19.04L39.98 53.96 9.94 32.9V13.87c0-.24.2-.44.44-.44z" fill="#2CC981"/>
    <mask id="a" maskUnits="userSpaceOnUse" x="0" y="0" width="80" height="79">
        <path fill-rule="evenodd" clip-rule="evenodd" d="M.1.15h79.8v77.92H.1V.15z" fill="#fff"/>
    </mask>
    <g mask="url(#a)" fill-rule="evenodd" clip-rule="evenodd" fill="#2CC981">
        <path d="M77.22 65.71c.05 1.84-.36 3.66-1.2 5.3L49.16 50.75 75.6 32.22a10.35 10.35 0 0 1 1.61 5.98V65.7zM12.34 75.4c-2.52.16-5-.7-6.89-2.4l27.51-20.7 6.26 4.45h.23c.17.08.35.12.53.12.18 0 .36-.04.52-.12h.23l6.14-4.3 27.5 20.66a10.49 10.49 0 0 1-6.76 2.3l-55.27-.01zM2.72 38.18c-.02-2.1.55-4.16 1.63-5.96l26.3 18.46L3.89 70.84a11.74 11.74 0 0 1-1.17-5.15V38.18zm4.57-8.67v1.55l-1.01-.76 1.01-.8zm3.09-16.08h59.2c.24 0 .43.2.43.44v19.04L39.98 53.96 9.94 32.9V13.87c0-.24.2-.44.44-.44zm29.6-10.24l9.41 7.6H30.56l9.42-7.6zm33.7 27.1l-1.02.73v-1.55l1.02.83zm3.12-.77s0-.1-.1-.14l-4.06-3.26V13.87a3.1 3.1 0 0 0-3.08-3.1H53.6L40.78.44a1.31 1.31 0 0 0-1.64 0L26.32 10.77H10.36a3.1 3.1 0 0 0-3.08 3.1V26.1l-4.05 3.27A13.44 13.44 0 0 0 .1 38.2v27.53c0 5.96 3.22 12.34 12.27 12.34H67.6c5.93 0 12.27-3.24 12.27-12.34V38.2c.15-3.2-.96-6.33-3.08-8.71v.03z"/>
        <path d="M18.44 22.07h29.32c.74 0 1.34-.67 1.34-1.5s-.6-1.5-1.34-1.5H18.44c-.74 0-1.34.67-1.34 1.5s.6 1.5 1.34 1.5zM18.4 31.07h42.4c.72 0 1.3-.67 1.3-1.5s-.58-1.5-1.3-1.5H18.4c-.71 0-1.3.67-1.3 1.5s.59 1.5 1.3 1.5z"/>
    </g>
</svg>
