<svg fill="none" xmlns="http://www.w3.org/2000/svg">
    <path opacity=".1" d="M100.23 50.85a49.04 49.04 0 1 1-98.08 0 49.04 49.04 0 0 1 98.08 0z" fill="#FF5C5C"/>
    <path fill-rule="evenodd" clip-rule="evenodd"
          d="M49.85 2.2c0-.64.51-1.16 1.15-1.16a50 50 0 1 1-24.88 6.63 1.15 1.15 0 0 1 1.15 2A47.7 47.7 0 1 0 51 3.35c-.64 0-1.15-.51-1.15-1.15z"
          fill="#FF5C5C" stroke="#FF5C5C" stroke-linecap="round" stroke-linejoin="round"/>
    <path d="M28.53 7.43a.38.38 0 0 0-.34-.43L16.55 5.84a.38.38 0 0 0-.33.64L26.56 18.4c.22.25.64.13.68-.2l1.29-10.77zM31.34 65.3a1 1 0 0 1-1-1v-1.63a1 1 0 0 1 .3-.7l9.58-9.79c2.64-2.64 3.96-4.9 3.96-6.8 0-1.57-.48-2.8-1.44-3.68a5.02 5.02 0 0 0-3.52-1.32c-2.28 0-4.02.94-5.23 2.81-.31.5-.96.7-1.46.4l-1.4-.82a.94.94 0 0 1-.35-1.28 9.22 9.22 0 0 1 3.2-3.3 10 10 0 0 1 5.2-1.4 8.9 8.9 0 0 1 6.12 2.31c1.74 1.55 2.6 3.63 2.6 6.24 0 2.83-1.66 5.91-5 9.24L37.46 60a1 1 0 0 0 .7 1.7h9.26a1 1 0 0 1 1 1v1.6a1 1 0 0 1-1 1H31.34zM70.66 56.5a1 1 0 0 1 1 1v1.48a1 1 0 0 1-1 1h-1.4a1 1 0 0 0-1 1v3.32a1 1 0 0 1-1 1h-1.72a1 1 0 0 1-1-1v-3.32a1 1 0 0 0-1-1H51.26a1 1 0 0 1-1-1v-2.23a1 1 0 0 1 .1-.46l9.65-18.45a1 1 0 0 1 .9-.54h1.73a1 1 0 0 1 .89 1.47l-8.5 16.27a1 1 0 0 0 .88 1.46h7.63a1 1 0 0 0 1-1v-5.92a1 1 0 0 1 1-1h1.72a1 1 0 0 1 1 1v5.92a1 1 0 0 0 1 1h1.4z"
          fill="#FF5C5C"/>
</svg>
