<svg viewBox="0 0 110 30" width="109" height="30" fill="none" xmlns="http://www.w3.org/2000/svg">
    <path fill-rule="evenodd" clip-rule="evenodd"
          d="M36.47 4.57H51.7v4.7h-5.18v15.25h-4.87V9.27h-5.18v-4.7zm15.74 14.6v-3.2c0-3.81 2.18-6.13 6.44-6.13s6.47 2.32 6.47 6.13v3.2c.03 3.78-2.18 5.69-6.47 5.69-4.26 0-6.44-1.88-6.44-5.69zm4.14-2.9v2.42c-.03 1.72.74 2.14 2.32 2.14 1.55 0 2.4-.45 2.36-2.14v-2.42c0-1.71-.78-2.57-2.36-2.57-1.55 0-2.32.86-2.32 2.57zm21.4-6.87v4.73c-1.93 0-3.55.39-4.71 1.16v9.13h-4.66v-14.3h4.07l.4 1.04c.5-.47 1.6-.85 2.45-1.2a6.57 6.57 0 0 1 2.45-.56zm14.9 9.22l-8.55-.22c0 1.84.95 2.26 2.96 2.26.9 0 2.62-.22 5.16-.67v3.45c-1.8 1.27-3.83 1.3-6.2 1.3-4.13 0-6.15-2.13-6.15-6.34V14.9c0-3.36 2.12-5.93 6.25-5.93 4.01 0 6.53 3.38 6.53 5.93v3.73zm-6.55-5.26c-1.57 0-2.02.72-2.02 2.14v.12h4.44v-.12c0-1.42-.84-2.14-2.42-2.14zm18.44 3.82l3.87 7.34h-4.96l-1.9-4.19-1.83 4.2h-4.96l3.87-7.3-3.68-7.39h5l1.65 4.25 1.67-4.25h4.98l-3.7 7.34zM8.82.17h11.64c4.7 0 8.51 3.94 8.51 8.8v11.97c0 4.86-3.81 8.8-8.5 8.8H8.81c-4.7 0-8.51-3.94-8.51-8.8V8.96C.3 4.11 4.1.17 8.8.17zM24.38 9.7l-4.62-4.93L15 9.69h9.39zm-19.33.04l4.92 5.08-4.8 5.05L10 24.85l4.8-4.96 4.78 4.92 4.83-4.92L9.83 4.8 5.05 9.74z"
          fill="#fff"/>
</svg>
