<svg viewBox="0 0 26 26" fill="none" xmlns="http://www.w3.org/2000/svg">
    <path d="M9.26 3.28a1 1 0 0 0 2 0h-2zm1-2.28V0a1 1 0 0 0-1 1h1zM25 1h1a1 1 0 0 0-1-1v1zm0 19.66v1a1 1 0 0 0 1-1h-1zm-14.74 0h-1a1 1 0 0 0 1 1v-1zm1-2.45a1 1 0 0 0-2 0h2zm-6.7-2.46a1 1 0 0 0 1.42-1.42l-1.41 1.42zM1 10.76l-.7-.7a1 1 0 0 0 0 1.41l.7-.7zM5.98 7.2a1 1 0 1 0-1.41-1.42L5.98 7.2zM18 11.83a1 1 0 1 0 0-2v2zm-17-2a1 1 0 0 0 0 2v-2zm18-1.14a1 1 0 0 0-2 0h2zm-2 4.27a1 1 0 1 0 2 0h-2zm-5.74-9.68V1h-2v2.28h2zm-1-1.28H25V0H10.26v2zM24 1v19.66h2V1h-2zm1 18.66H10.26v2H25v-2zm-13.74 1V18.2h-2v2.45h2zm-5.28-6.33l-4.27-4.27-1.42 1.41 4.28 4.28 1.41-1.42zm-4.27-2.86L5.98 7.2 4.57 5.78.29 10.06l1.42 1.41zM18 9.83H1v2h17v-2zm-1-1.14v4.27h2V8.7h-2z"
          fill="#fff"/>
</svg>
