<svg viewBox="0 0 213 57" xmlns="http://www.w3.org/2000/svg">
    <path fill-rule="evenodd" clip-rule="evenodd"
          d="M71.652 9.033h29.753v8.928H91.287V46.95H81.77V17.96H71.652V9.034zm30.764 27.75v-6.09c0-7.233 4.257-11.638 12.578-11.638s12.638 4.405 12.638 11.637v6.09c.06 7.178-4.257 10.802-12.638 10.802-8.321 0-12.578-3.57-12.578-10.802zm8.085-5.506v4.593c-.063 3.266 1.45 4.064 4.54 4.064 3.026 0 4.666-.85 4.603-4.064v-4.593c0-3.266-1.514-4.9-4.603-4.9-3.027 0-4.54 1.633-4.54 4.9zm41.822-13.057v8.986c-3.771 0-6.937.732-9.212 2.195v17.348h-9.1V19.578h7.962l.779 1.986c.957-.888 3.106-1.62 4.782-2.3 1.736-.678 3.293-1.044 4.789-1.044zm29.108 17.511l-16.702-.414c0 3.488 1.849 4.3 5.788 4.3 1.756 0 5.118-.426 10.086-1.277v6.552c-3.532 2.406-7.493 2.458-12.103 2.458-8.082 0-12.039-4.035-12.039-12.033v-6.674c0-6.378 4.137-11.258 12.219-11.258 7.842 0 12.751 6.425 12.751 11.258v7.088zm-12.784-9.995c-3.078 0-3.952 1.373-3.952 4.074v.229h8.674v-.229c0-2.7-1.645-4.074-4.722-4.074zm36.034 7.268l7.561 13.946h-9.69l-3.728-7.96-3.572 7.96h-9.69l7.561-13.843-7.199-14.052h9.795l3.209 8.066 3.261-8.066h9.742l-7.251 13.949h.001z"
          fill="#171A2C"/>
    <path d="M40.365.681H17.607C8.423.681.977 8.16.977 17.385v22.758c0 9.225 7.446 16.703 16.63 16.703h22.758c9.184 0 16.63-7.478 16.63-16.703V17.385C56.995 8.16 49.55.68 40.365.68z"
          fill="#2CC981"/>
    <path fill-rule="evenodd" clip-rule="evenodd"
          d="M39.001 9.396l9.015 9.362h-18.34l9.325-9.362zM19.87 28.488l-9.626-9.65 9.341-9.366 28.49 28.68-9.437 9.348-9.323-9.348-9.388 9.414-9.45-9.475 9.393-9.603z"
          fill="#fff"/>
</svg>
