<svg fill="none" xmlns="http://www.w3.org/2000/svg">
    <path fill-rule="evenodd" clip-rule="evenodd"
          d="M43.5 62h-12V50l9.98-14v20c0 2.24.74 4.34 2.02 6zM95.5 50v12H83.52l-.02-.02A9.78 9.78 0 0 0 85.51 56V36h.02l9.97 14z"
          fill="#D4F4E6"/>
    <path fill-rule="evenodd" clip-rule="evenodd" d="M63.5 21a6 6 0 1 1-.01 12.01A6 6 0 0 1 63.5 21z" fill="#94C1FF"/>
    <mask id="a" maskUnits="userSpaceOnUse" x="0" y="0" width="128" height="127">
        <path fill-rule="evenodd" clip-rule="evenodd" d="M.5 127h127V0H.5v127z" fill="#fff"/>
    </mask>
    <g mask="url(#a)" fill-rule="evenodd" clip-rule="evenodd">
        <path d="M51.5 56h24V44h-24v12z" fill="#fff"/>
        <path d="M57.5 65v6.16c-2.02.18-4.02.45-6 .84v-7h6zM76.5 65v7c-1.98-.4-3.98-.66-6-.84V65h6z" fill="#D4F4E6"/>
        <path d="M70.5 26.95a6 6 0 1 0-12 .01 6 6 0 0 0 12-.01zM52.5 55h24V43h-24v12zm34-19.99v19.99c0 2.24-.74 4.31-2.02 5.97A9.92 9.92 0 0 1 76.5 65h-24a9.98 9.98 0 0 1-7.98-4 9.8 9.8 0 0 1-2.02-6V26.9c0-3.2 5.02-10.41 9.24-15.89l.04.04h25.44l.04-.04c4.22 5.5 9.24 12.7 9.24 15.89v8.13z"
              fill="#fff"/>
        <path d="M87.5 97a13 13 0 1 1 0 26 13 13 0 0 1 0-26zM56.5 83a5 5 0 1 1 0 10 5 5 0 0 1 0-10zM33.5 103a9 9 0 1 1 0 18 9 9 0 0 1 0-18zM76.5 11.96l-.04.04h-24.9l-.06-.04c3-3.96 5.58-7.04 5.58-7.04a9.65 9.65 0 0 1 13.84 0S73.5 8 76.5 11.96z"
              fill="#D4F4E6"/>
        <path d="M64 73c30.6 0 56.61 22.65 60.52 52.7a1.5 1.5 0 1 0 2.97-.4C123.39 93.79 96.1 70 64 70S4.6 93.78.51 125.3a1.5 1.5 0 0 0 1.3 1.69 1.49 1.49 0 0 0 1.68-1.3C7.39 95.65 33.4 73 64 73z"
              fill="#2CC981"/>
        <path d="M33 120a7.5 7.5 0 1 1 .02-15.02A7.5 7.5 0 0 1 33 120zm0-18a10.51 10.51 0 0 0 0 21 10.51 10.51 0 0 0 0-21zM57 92a3.5 3.5 0 1 1 0-7 3.5 3.5 0 0 1 0 7zm0-10a6.5 6.5 0 1 0 .01 13.01A6.5 6.5 0 0 0 57 82zM87 122c-6.34 0-11.5-5.16-11.5-11.5S80.66 99 87 99s11.5 5.16 11.5 11.5S93.34 122 87 122zm0-26c-8 0-14.5 6.5-14.5 14.5S79 125 87 125s14.5-6.5 14.5-14.5S95 96 87 96zM84.5 55.5c0 4.69-3.81 8.5-8.5 8.5H52a8.51 8.51 0 0 1-8.5-8.5V27.35c0-3.6 8.87-15.3 14.46-21.85l.03-.02A8.44 8.44 0 0 1 64 3c2.24 0 4.4.86 5.9 2.36l.03.03c5.63 6.58 14.57 18.35 14.57 21.96V55.5zm3-28.15c0-4.5-8.28-15.74-15.38-24A11.42 11.42 0 0 0 64 0c-3.12 0-5.96 1.2-8.22 3.46-7.05 8.23-15.28 19.42-15.28 23.89V55.5C40.5 61.84 45.66 67 52 67h24c6.34 0 11.5-5.16 11.5-11.5V27.35z"
              fill="#2CC981"/>
        <path d="M53.5 65.48c0-.82-.67-1.48-1.5-1.48s-1.5.66-1.5 1.48v7.04c0 .82.67 1.48 1.5 1.48s1.5-.66 1.5-1.48v-7.04zM59.5 65.45c0-.8-.67-1.45-1.5-1.45s-1.5.65-1.5 1.45v6.1c0 .8.67 1.45 1.5 1.45s1.5-.65 1.5-1.45v-6.1zM77.5 65.48c0-.82-.67-1.48-1.5-1.48s-1.5.66-1.5 1.48v7.04c0 .82.67 1.48 1.5 1.48s1.5-.66 1.5-1.48v-7.04zM71.5 65.45c0-.8-.67-1.45-1.5-1.45s-1.5.65-1.5 1.45v6.1c0 .8.67 1.45 1.5 1.45s1.5-.65 1.5-1.45v-6.1zM64 20a7.5 7.5 0 1 0 .02 15.02A7.5 7.5 0 0 0 64 20z"
              fill="#2CC981"/>
        <path d="M64 32a4.5 4.5 0 1 1 .01-9.01A4.5 4.5 0 0 1 64 32z" fill="#D4F4E6"/>
        <path d="M53.28 54.2h21.44v-9.4H53.28v9.4zM76.1 42H51.9a1.4 1.4 0 0 0-1.39 1.4v12.2c0 .77.62 1.4 1.39 1.4H76.1a1.4 1.4 0 0 0 1.39-1.4V43.4c0-.77-.62-1.4-1.39-1.4zM33.5 49.5a1.5 1.5 0 0 0-3 0v12a1.5 1.5 0 0 0 3 0v-12z"
              fill="#2CC981"/>
        <path d="M33.22 50.37l10-14a1.49 1.49 0 0 0-.35-2.09 1.48 1.48 0 0 0-1.11-.26c-.4.07-.75.28-.98.6l-10 14a1.49 1.49 0 0 0 .35 2.1 1.49 1.49 0 0 0 2.1-.35zM32 63h12a1.5 1.5 0 0 0 0-3H32a1.5 1.5 0 0 0 0 3zM96 48c-.83 0-1.5.67-1.5 1.5v12a1.5 1.5 0 0 0 3 0v-12c0-.83-.67-1.5-1.5-1.5z"
              fill="#2CC981"/>
        <path d="M97.22 48.63l-10-14a1.5 1.5 0 0 0-2.44 1.74l10 14a1.48 1.48 0 0 0 2.1.35 1.5 1.5 0 0 0 .34-2.1zM84 63h12a1.5 1.5 0 0 0 0-3H84a1.5 1.5 0 0 0 0 3zM76.02 10H50.98c-.82 0-1.48.67-1.48 1.5s.66 1.5 1.48 1.5h25.04a1.5 1.5 0 0 0 1.48-1.5c0-.83-.66-1.5-1.48-1.5z"
              fill="#2CC981"/>
    </g>
</svg>
