<svg viewBox="0 0 26 27" xmlns="http://www.w3.org/2000/svg">
    <path fill-rule="evenodd" clip-rule="evenodd"
          d="M15.412.133a1 1 0 0 1 .761-.097 13.918 13.918 0 0 1 9.797 9.992 1 1 0 0 1-.711 1.21l-2.94.788c.231.902.354 1.848.354 2.82 0 6.261-5.075 11.337-11.336 11.337S0 21.107 0 14.846C0 8.586 5.076 3.51 11.336 3.51c.956 0 1.885.118 2.774.341l.833-3.11a1 1 0 0 1 .469-.608zm-1.82 5.65a9.36 9.36 0 0 0-2.256-.273 9.336 9.336 0 1 0 9.337 9.336c0-.796-.1-1.567-.286-2.303l-7.599 2.036a1 1 0 0 1-1.225-1.224l2.03-7.572zm3.012-3.511l-2.66 9.927 9.805-2.627a11.93 11.93 0 0 0-7.145-7.3z"
         />
</svg>
