<svg viewBox="0 0 22 22" xmlns="http://www.w3.org/2000/svg">
    <path d="M1 6.312H0a1 1 0 0 0 1 1v-1zm7.5 0v1a1 1 0 0 0 1-1h-1zM1 1V0a1 1 0 0 0-1 1h1zm7.5 0h1a1 1 0 0 0-1-1v1zm5 20h-1a1 1 0 0 0 1 1v-1zm7.5 0v1a1 1 0 0 0 1-1h-1zm-7.5-5.312v-1a1 1 0 0 0-1 1h1zm7.5 0h1a1 1 0 0 0-1-1v1zm0-5v1a1 1 0 0 0 1-1h-1zm-7.5 0h-1a1 1 0 0 0 1 1v-1zM21 1h1a1 1 0 0 0-1-1v1zm-7.5 0V0a1 1 0 0 0-1 1h1zM1 21H0a1 1 0 0 0 1 1v-1zm7.5 0v1a1 1 0 0 0 1-1h-1zM1 11.313v-1a1 1 0 0 0-1 1h1zm7.5 0h1a1 1 0 0 0-1-1v1zM1 7.312h7.5v-2H1v2zM0 1v5.312h2V1H0zm8.5-1H1v2h7.5V0zm1 6.312V1h-2v5.312h2zM13.5 22H21v-2h-7.5v2zm-1-6.312V21h2v-5.312h-2zm8.5-1h-7.5v2H21v-2zM22 21v-5.312h-2V21h2zM21 9.687h-7.5v2H21v-2zM20 1v9.687h2V1h-2zm-6.5 1H21V0h-7.5v2zm1 8.687V1h-2v9.687h2zM1 22h7.5v-2H1v2zM0 11.313V21h2v-9.687H0zm8.5-1H1v2h7.5v-2zM9.5 21v-9.687h-2V21h2z"/>
</svg>
