<svg viewBox="0 0 21 20"  xmlns="http://www.w3.org/2000/svg">
    <path fill-rule="evenodd" clip-rule="evenodd"
          d="M5.08914 3.29817C5.47289 1.4714 7.09317 0.100098 9.03416 0.100098C10.9749 0.100098 12.5954 1.47137 12.9792 3.29817H16.3679C16.865 3.29817 17.2679 3.70111 17.2679 4.19817V7.64063C19.128 7.99841 20.5332 9.6347 20.5332 11.5991C20.5332 13.5636 19.128 15.1998 17.2679 15.5576V19.0001C17.2679 19.4972 16.865 19.9001 16.3679 19.9001H12.1619C11.6723 19.9001 11.2725 19.5087 11.2621 19.0193C11.2363 17.8083 10.2489 16.8358 9.03416 16.8358C7.81958 16.8358 6.83169 17.8085 6.80591 19.0193C6.79549 19.5087 6.3957 19.9001 5.90611 19.9001H1.56602C1.06896 19.9001 0.666016 19.4972 0.666016 19.0001V14.7303C0.666016 14.2333 1.06896 13.8303 1.56602 13.8303C2.79845 13.8303 3.79719 12.8314 3.79719 11.5991C3.79719 10.3669 2.79845 9.36796 1.56602 9.36796C1.06896 9.36796 0.666016 8.96501 0.666016 8.46796V4.19817C0.666016 3.70111 1.06896 3.29817 1.56602 3.29817H5.08914ZM6.80304 4.11448L6.80413 4.13171C6.80487 4.1452 6.80576 4.16431 6.80604 4.18678C6.80909 4.42743 6.71562 4.65927 6.54652 4.83052C6.37742 5.00178 6.14678 5.09817 5.90611 5.09817H2.46602V7.66878C4.2593 8.07766 5.59719 9.6822 5.59719 11.5991C5.59719 13.5161 4.2593 15.1206 2.46602 15.5295V18.1001H5.12229C5.55524 16.3416 7.14057 15.0358 9.03416 15.0358C10.9281 15.0358 12.5129 16.3417 12.9458 18.1001H15.4679V14.7238C15.4679 14.4791 15.5675 14.2451 15.7437 14.0754C15.92 13.9057 16.1577 13.8151 16.4021 13.8244C16.4236 13.8252 16.4427 13.8263 16.4574 13.8272L16.4924 13.8295C16.4998 13.83 16.504 13.8302 16.5059 13.8303C17.7363 13.8282 18.7332 12.83 18.7332 11.5991C18.7332 10.3686 17.737 9.37074 16.5072 9.36796C16.5051 9.36808 16.5013 9.3683 16.4952 9.3687L16.4801 9.36974L16.4596 9.37112C16.4444 9.3721 16.4245 9.37329 16.4021 9.37414C16.1577 9.38342 15.92 9.2928 15.7437 9.12315C15.5675 8.95349 15.4679 8.71941 15.4679 8.47479V5.09817H12.1619C11.9193 5.09817 11.6869 5.00019 11.5175 4.82646C11.3481 4.65273 11.2561 4.41796 11.2622 4.17539C11.2627 4.15479 11.2637 4.13728 11.2644 4.12524L11.2653 4.11306C11.2555 2.88901 10.2603 1.9001 9.03416 1.9001C7.80727 1.9001 6.81207 2.88972 6.80304 4.11448Z"
        />
</svg>
