<svg  fill="#fff" xmlns="http://www.w3.org/2000/svg">
    <path d="M8.05 1a.5.5 0 1 0-1 0h1zm-1 12.34a.5.5 0 0 0 1 0h-1zm5.54-6.67a.5.5 0 0 0 0 1v-1zm1.51.5h.5a.5.5 0 0 0-.5-.5v.5zm0 9.83v.5a.5.5 0 0 0 .5-.5h-.5zM1 17H.5c0 .28.22.5.5.5V17zm0-9.83v-.5a.5.5 0 0 0-.5.5H1zm1.63.5a.5.5 0 0 0 0-1v1zm8.13 3.18a.5.5 0 1 0-.71-.71l.7.7zm-3.2 2.5l-.36.35a.5.5 0 0 0 .7 0l-.35-.36zm-2.5-3.21a.5.5 0 1 0-.71.7l.7-.7zM7.05 1v12.34h1V1h-1zm5.54 6.67h1.51v-1H12.6v1zm1.01-.5V17h1V7.17h-1zm.5 9.33H1v1h13.1v-1zM1.5 17V7.17h-1V17h1zM1 7.67h1.63v-1H1v1zm9.05 2.47L7.2 12.99l.7.7 2.86-2.84-.71-.71zm-2.14 2.85l-2.85-2.85-.71.7L7.2 13.7l.7-.71z"
          fill="#fff"/>
</svg>
