<svg xmlns="http://www.w3.org/2000/svg">
    <path d="M8.47 11.03c0-.48-.19-.87-.56-1.18-.37-.31-1-.6-1.87-.84-.87-.25-1.55-.49-2.04-.7-1.61-.7-2.42-1.74-2.42-3.11 0-.93.35-1.7 1.05-2.3.7-.6 1.65-.95 2.85-1.07V0h1.66v1.85c1.2.14 2.14.56 2.8 1.25.66.68.99 1.57.99 2.67H8.4c0-.7-.2-1.26-.6-1.66-.38-.41-.91-.62-1.58-.62s-1.19.15-1.56.44c-.38.29-.56.7-.56 1.25 0 .49.18.88.55 1.18a6 6 0 0 0 1.89.83c.89.27 1.58.51 2.09.73.5.23.93.49 1.28.78.34.28.61.62.8 1 .18.37.28.8.28 1.31 0 .95-.36 1.72-1.08 2.3a5.3 5.3 0 0 1-3 1.05V16H5.27v-1.63a5.3 5.3 0 0 1-3.17-1.2A3.45 3.45 0 0 1 1 10.5h2.52c0 .7.22 1.25.66 1.64.44.39 1.07.58 1.87.58.79 0 1.39-.16 1.8-.46.41-.31.62-.72.62-1.23z"
    />
</svg>
